<svg width="101" height="32" viewBox="0 0 101 32" fill="none" xmlns="http://www.w3.org/2000/svg">
<g clip-path="url(#clip0_3466_316)">
<path d="M56.3182 23.018H60.0421L62.3172 11.8991H65.1098L65.5216 9.83054H62.7826L62.8864 9.36519C63.0413 8.48807 63.3517 7.50327 64.7478 7.50327C65.5762 7.50327 66.3514 7.55492 67.1267 7.91697L67.5409 5.74514C66.6769 5.44028 65.7678 5.28281 64.8516 5.2793C61.8519 5.2793 59.7838 7.03791 59.0076 9.83054H57.7148L57.3011 11.8991H58.5939L56.3182 23.018Z" fill="#EA1D2C"/>
<path d="M68.1095 20.3291C72.5053 20.3291 75.5567 16.3465 75.5567 13.0885C75.5567 10.6579 73.3327 9.62339 71.1609 9.62339C66.3499 9.62339 63.7137 13.9183 63.7137 16.864C63.7137 19.2945 65.9893 20.3291 68.1095 20.3291ZM79.9018 20.3291C84.2976 20.3291 87.349 16.3465 87.349 13.0885C87.349 10.6579 85.0734 9.62339 82.9011 9.62339C78.0915 9.62339 75.4544 13.9159 75.4544 16.864C75.4544 19.2945 77.7816 20.3291 79.9018 20.3291ZM93.3996 20.122H97.0713L100.07 5.48828H96.3467L95.4672 9.83243L93.9157 9.67748C90.2956 9.67748 86.986 14.3315 86.986 17.6417C86.986 18.9861 87.8631 20.331 89.3649 20.331C91.4851 20.331 92.985 19.2965 93.6043 18.262H93.8109L93.3996 20.122ZM81.9177 27.8279C79.0276 30.2226 75.3154 31.3918 71.5746 31.0859C66.6613 30.7755 63.1445 27 62.5242 23.0179H62.7308C63.8687 25.5031 66.6096 27.8279 69.9714 28.1895C73.3824 28.6032 77.4703 27.0521 79.6937 24.9315L77.2115 23.0179H84.7104L83.0536 30.9826L81.9674 27.8795L81.9177 27.8279Z" fill="#EA1D2C"/>
</g>
<path d="M6.2462 21.0051C6.2275 21.1013 6.18348 21.1837 6.11414 21.2524C6.04747 21.3074 5.95814 21.3349 5.84616 21.3349H2.82272C2.72474 21.3349 2.6461 21.3074 2.58679 21.2524C2.54416 21.1837 2.53219 21.1013 2.55089 21.0051L5.31519 6.78398C5.33656 6.67405 5.38058 6.59161 5.44725 6.53665C5.52792 6.48169 5.61725 6.45421 5.71523 6.45421H15.8563C15.9683 6.45421 16.047 6.48169 16.0923 6.53665C16.1376 6.59161 16.1495 6.67405 16.1282 6.78398L15.5913 9.54576C15.5726 9.64194 15.5286 9.72438 15.4593 9.79309C15.3926 9.84805 15.3033 9.87553 15.1913 9.87553H8.40957L7.82866 12.864H13.6026C13.7146 12.864 13.7932 12.8915 13.8385 12.9465C13.8838 13.0014 13.8958 13.0839 13.8744 13.1938L13.3376 15.9556C13.3189 16.0518 13.2749 16.1342 13.2055 16.2029C13.1389 16.2579 13.0495 16.2853 12.9376 16.2853H7.16363L6.2462 21.0051ZM20.7143 21.644C19.2866 21.644 18.1235 21.3624 17.2252 20.799C16.3296 20.2219 15.758 19.4181 15.5104 18.3876C15.4984 18.3052 15.4951 18.2502 15.5004 18.2227C15.5218 18.1128 15.6091 18.0235 15.7625 17.9548L18.4764 16.7388L18.6524 16.6975C18.7643 16.6975 18.8516 16.7525 18.9142 16.8624C19.16 17.3983 19.4758 17.7899 19.8617 18.0372C20.2642 18.2708 20.7594 18.3876 21.3473 18.3876C21.9772 18.3876 22.4814 18.2777 22.8601 18.0578C23.2554 17.8242 23.4892 17.522 23.5613 17.151C23.6414 16.7388 23.5249 16.4021 23.2117 16.1411C22.8985 15.88 22.3687 15.6533 21.6222 15.4609C20.6652 15.1999 19.8477 14.9044 19.17 14.5747C18.4949 14.2312 17.9668 13.7434 17.5858 13.1113C17.2074 12.4656 17.1157 11.6411 17.3107 10.6381C17.4682 9.82744 17.8308 9.07859 18.3982 8.39158C18.9797 7.70457 19.7291 7.16183 20.6463 6.76337C21.5803 6.35116 22.6212 6.14506 23.769 6.14506C25.1687 6.14506 26.2784 6.41299 27.0981 6.94886C27.9317 7.48473 28.4774 8.20609 28.735 9.11294C28.747 9.19539 28.7517 9.24348 28.749 9.25722C28.7303 9.3534 28.6416 9.44958 28.4829 9.54576L25.7771 10.7206C25.6991 10.7618 25.6321 10.7824 25.5761 10.7824C25.4781 10.7824 25.4048 10.7274 25.3562 10.6175C25.1283 10.2053 24.8302 9.90301 24.4616 9.71064C24.1098 9.50454 23.6679 9.40149 23.136 9.40149C22.5901 9.40149 22.1501 9.50454 21.8161 9.71064C21.4988 9.90301 21.3094 10.1572 21.248 10.4732C21.1812 10.8167 21.2678 11.0915 21.5077 11.2976C21.7502 11.49 22.2041 11.6755 22.8692 11.8541C23.9302 12.1564 24.8223 12.4999 25.5454 12.8846C26.2711 13.2556 26.8275 13.7778 27.2145 14.451C27.6155 15.1243 27.7172 15.9693 27.5196 16.9861C27.354 17.838 26.9708 18.6212 26.37 19.3357C25.7719 20.0364 24.9835 20.5998 24.0049 21.0257C23.0429 21.4379 21.9461 21.644 20.7143 21.644ZM35.3348 21.0669C35.2441 21.2456 35.1007 21.3349 34.9048 21.3349H31.3354C31.1395 21.3349 31.0392 21.2387 31.0346 21.0463L30.6075 6.8252L30.6275 6.72215C30.6622 6.54352 30.7776 6.45421 30.9735 6.45421H34.1859C34.3959 6.45421 34.5032 6.55039 34.5078 6.74276L34.5355 16.4296L38.4375 8.45341C38.5282 8.27479 38.6715 8.18548 38.8675 8.18548H41.597C41.7929 8.18548 41.9015 8.27479 41.9228 8.45341L42.766 16.4296L46.6435 6.74276C46.7229 6.55039 46.8676 6.45421 47.0775 6.45421H49.975C50.087 6.45421 50.1643 6.48856 50.2069 6.55726C50.2496 6.62596 50.2462 6.71528 50.1968 6.8252L44.2411 21.0463C44.1617 21.2387 44.0241 21.3349 43.8281 21.3349H40.2588C40.0628 21.3349 39.9542 21.2456 39.9329 21.0669L39.1146 13.5029L35.3348 21.0669Z" fill="#EA1D2C"/>
<defs>
<clipPath id="clip0_3466_316">
<rect width="44.0267" height="26" fill="white" transform="translate(56 5.2793)"/>
</clipPath>
</defs>
</svg>
